# xmcd
#
# Track frame offsets: 
#        151
#        16426
#        43455
#        76306
#        98590
#        119771
#
# Disc length: 1836 seconds
#
# Revision: 0
# Processed by: cddbd v1.5.2PL0 Copyright (c) Steve Scherf et al.
# Submitted via: ExactAudioCopy v0.99pb4
#
DISCID=4a072a06
DTITLE=Was zählt? - Poedt
DYEAR=1999
DGENRE=Vocal
TTITLE0=Elmedina
TTITLE1=Die Marionette
TTITLE2=Fernweh
TTITLE3=Was zählt
TTITLE4=Schade dann
TTITLE5=Gelähmt
EXTD=
EXTT0=
EXTT1=
EXTT2=
EXTT3=
EXTT4=
EXTT5=
PLAYORDER=
